<svg xmlns="http://www.w3.org/2000/svg" width="520" height="360" viewBox="0 0 520 360" role="img" aria-labelledby="title desc">
  <title id="title">AprilTag wearing photo placeholder</title>
  <desc id="desc">A placeholder card for a future photo of a person wearing AprilTag posture markers.</desc>
  <rect width="520" height="360" rx="28" fill="#eef4f6"/>
  <path d="M260 86 C294 86 318 112 318 146 C318 174 300 196 274 204 L274 260 L336 300" fill="none" stroke="#242424" stroke-width="14" stroke-linecap="round" stroke-linejoin="round"/>
  <path d="M274 204 L222 260 L186 306" fill="none" stroke="#242424" stroke-width="14" stroke-linecap="round" stroke-linejoin="round"/>
  <rect x="309" y="130" width="42" height="42" fill="#fff" stroke="#111" stroke-width="4"/>
  <path d="M318 139 H342 V163 H318 Z M324 145 H336 V157 H324 Z" fill="#111"/>
  <rect x="250" y="198" width="42" height="42" fill="#fff" stroke="#111" stroke-width="4"/>
  <path d="M259 207 H283 V231 H259 Z M265 213 H277 V225 H265 Z" fill="#111"/>
  <rect x="206" y="252" width="42" height="42" fill="#fff" stroke="#111" stroke-width="4"/>
  <path d="M215 261 H239 V285 H215 Z M221 267 H233 V279 H221 Z" fill="#111"/>
  <text x="260" y="54" text-anchor="middle" font-family="-apple-system, BlinkMacSystemFont, Segoe UI, sans-serif" font-size="28" font-weight="800" fill="#222">Wearing the tags</text>
  <text x="260" y="332" text-anchor="middle" font-family="-apple-system, BlinkMacSystemFont, Segoe UI, sans-serif" font-size="18" fill="#667">setup photo goes here tomorrow</text>
</svg>
